<svg width="64" height="64" viewBox="0 0 100 80" fill="none">
<g id="io">
<rect width="100" height="80"/>
<g id="Group 1">
<g id="signText">
<path d="M50.716 30.68C50.562 30.834 50.485 31.03 50.485 31.268V39.374H39.376V31.268C39.376 31.044 39.299 30.855 39.145 30.701C38.991 30.533 38.795 30.449 38.557 30.449C38.333 30.449 38.137 30.533 37.969 30.701C37.815 30.855 37.738 31.044 37.738 31.268V49.118C37.738 49.342 37.815 49.538 37.969 49.706C38.137 49.86 38.333 49.937 38.557 49.937C38.795 49.937 38.991 49.86 39.145 49.706C39.299 49.552 39.376 49.356 39.376 49.118V41.012H50.485V49.118C50.485 49.356 50.562 49.552 50.716 49.706C50.87 49.86 51.066 49.937 51.304 49.937C51.514 49.937 51.703 49.86 51.871 49.706C52.039 49.538 52.123 49.342 52.123 49.118V31.268C52.123 31.044 52.039 30.855 51.871 30.701C51.717 30.533 51.528 30.449 51.304 30.449H50.947L50.716 30.68Z" fill="black"/>
<path d="M50.716 30.68L51.4231 31.3871L51.4231 31.3871L50.716 30.68ZM50.485 39.374V40.374H51.485V39.374H50.485ZM39.376 39.374H38.376V40.374H39.376V39.374ZM39.145 30.701L38.4079 31.3767L38.4225 31.3927L38.4379 31.4081L39.145 30.701ZM37.969 30.701L38.6761 31.4081L38.6761 31.4081L37.969 30.701ZM37.969 49.706L37.2319 50.3817L37.2612 50.4138L37.2933 50.4432L37.969 49.706ZM39.145 49.706L38.4379 48.9989L39.145 49.706ZM39.376 41.012V40.012H38.376V41.012H39.376ZM50.485 41.012H51.485V40.012H50.485V41.012ZM50.716 49.706L51.4231 48.9989H51.4231L50.716 49.706ZM51.871 49.706L52.5467 50.4432L52.5628 50.4285L52.5781 50.4131L51.871 49.706ZM51.871 30.701L51.1339 31.3767L51.1632 31.4088L51.1953 31.4382L51.871 30.701ZM50.947 30.449V29.449H50.5328L50.2399 29.7419L50.947 30.449ZM50.0089 29.9729C49.6491 30.3328 49.485 30.7919 49.485 31.268H51.485C51.485 31.258 51.4863 31.2755 51.4735 31.3082C51.46 31.3425 51.44 31.3703 51.4231 31.3871L50.0089 29.9729ZM49.485 31.268V39.374H51.485V31.268H49.485ZM50.485 38.374H39.376V40.374H50.485V38.374ZM40.376 39.374V31.268H38.376V39.374H40.376ZM40.376 31.268C40.376 30.7872 40.1996 30.3413 39.8521 29.9939L38.4379 31.4081C38.4271 31.3973 38.4073 31.3726 38.3922 31.3355C38.3773 31.299 38.376 31.2727 38.376 31.268H40.376ZM39.8822 30.0253C39.5295 29.6405 39.0613 29.449 38.557 29.449V31.449C38.5576 31.449 38.5506 31.449 38.5376 31.4465C38.5244 31.444 38.5075 31.4392 38.4886 31.4311C38.4474 31.4135 38.42 31.39 38.4079 31.3767L39.8822 30.0253ZM38.557 29.449C38.0505 29.449 37.6048 29.651 37.2619 29.9939L38.6761 31.4081C38.6804 31.4038 38.6675 31.4176 38.6359 31.4311C38.6032 31.4452 38.5735 31.449 38.557 31.449V29.449ZM37.2619 29.9939C36.9145 30.3413 36.738 30.7872 36.738 31.268H38.738C38.738 31.2727 38.7367 31.299 38.7219 31.3355C38.7068 31.3726 38.687 31.3973 38.6761 31.4081L37.2619 29.9939ZM36.738 31.268V49.118H38.738V31.268H36.738ZM36.738 49.118C36.738 49.597 36.9121 50.0329 37.2319 50.3817L38.7062 49.0303C38.7053 49.0294 38.7165 49.0419 38.7265 49.0673C38.7366 49.0931 38.738 49.1129 38.738 49.118H36.738ZM37.2933 50.4432C37.6422 50.763 38.078 50.937 38.557 50.937V48.937C38.5621 48.937 38.5819 48.9384 38.6077 48.9485C38.6331 48.9585 38.6456 48.9697 38.6447 48.9688L37.2933 50.4432ZM38.557 50.937C39.0331 50.937 39.4923 50.773 39.8521 50.4131L38.4379 48.9989C38.4547 48.9821 38.4825 48.962 38.5169 48.9485C38.5495 48.9357 38.5671 48.937 38.557 48.937V50.937ZM39.8521 50.4131C40.212 50.0532 40.376 49.5941 40.376 49.118H38.376C38.376 49.128 38.3747 49.1105 38.3875 49.0778C38.401 49.0435 38.4211 49.0157 38.4379 48.9989L39.8521 50.4131ZM40.376 49.118V41.012H38.376V49.118H40.376ZM39.376 42.012H50.485V40.012H39.376V42.012ZM49.485 41.012V49.118H51.485V41.012H49.485ZM49.485 49.118C49.485 49.5941 49.6491 50.0532 50.0089 50.4131L51.4231 48.9989C51.44 49.0157 51.46 49.0435 51.4735 49.0778C51.4863 49.1105 51.485 49.128 51.485 49.118H49.485ZM50.0089 50.4131C50.3688 50.773 50.8279 50.937 51.304 50.937V48.937C51.294 48.937 51.3115 48.9357 51.3442 48.9485C51.3786 48.962 51.4063 48.9821 51.4231 48.9989L50.0089 50.4131ZM51.304 50.937C51.7865 50.937 52.2114 50.7505 52.5467 50.4432L51.1953 48.9688C51.1886 48.975 51.1985 48.9643 51.226 48.9532C51.2548 48.9414 51.2835 48.937 51.304 48.937V50.937ZM52.5781 50.4131C52.921 50.0702 53.123 49.6246 53.123 49.118H51.123C51.123 49.1015 51.1269 49.0718 51.1409 49.0391C51.1544 49.0075 51.1682 48.9946 51.1639 48.9989L52.5781 50.4131ZM53.123 49.118V31.268H51.123V49.118H53.123ZM53.123 31.268C53.123 30.7582 52.9173 30.3035 52.5467 29.9638L51.1953 31.4382C51.1884 31.4319 51.1654 31.4077 51.1462 31.3644C51.1268 31.3207 51.123 31.2842 51.123 31.268H53.123ZM52.6082 30.0253C52.2685 29.6547 51.8138 29.449 51.304 29.449V31.449C51.2879 31.449 51.2513 31.4452 51.2076 31.4258C51.1644 31.4066 51.1402 31.3836 51.1339 31.3767L52.6082 30.0253ZM51.304 29.449H50.947V31.449H51.304V29.449ZM50.2399 29.7419L50.0089 29.9729L51.4231 31.3871L51.6541 31.1561L50.2399 29.7419Z" fill="green"/>
</g>
<path id="strock1" d="M67 5L52 75" stroke="white" stroke-width="3" stroke-linecap="round"/>
<path id="poly1" d="M34 53L12.2589 41.2598C10.8593 40.504 10.8593 38.496 12.2589 37.7402L34 26" stroke="white" stroke-width="3" stroke-linecap="round"/>
<path id="poly2" d="M67 26L88.7411 37.7402C90.1407 38.496 90.1407 40.504 88.7411 41.2598L67 53" stroke="white" stroke-width="3" stroke-linecap="round"/>
</g>
</g>
</svg>
